<svg xmlns="http://www.w3.org/2000/svg" width="1200" height="700" viewBox="0 0 1200 700"><rect width="1200" height="700" fill="#f4f7fb"/><rect x="0" y="0" width="1200" height="92" fill="#ffffff"/><rect x="30" y="22" width="42" height="42" rx="10" fill="#0891b2"/><text x="88" y="48" font-family="Arial" font-size="20" font-weight="700" fill="#172033">API Test Dashboard</text><text x="88" y="70" font-family="Arial" font-size="13" fill="#718096">REST validation and automated test runs</text><rect x="1010" y="25" width="150" height="40" rx="20" fill="#f1f5f9"/><text x="1038" y="50" font-family="Arial" font-size="13" fill="#526176">Dashboard</text><rect x="70" y="155" width="230" height="105" rx="14" fill="#f8fafc" stroke="#dbe3ef"/><rect x="90" y="175" width="90" height="10" rx="5" fill="#0891b2" opacity=".85"/><text x="90" y="217" font-family="Arial" font-size="25" font-weight="700" fill="#172033">Pass rate</text><text x="90" y="245" font-family="Arial" font-size="18" fill="#65738a">98.4%</text><rect x="320" y="155" width="230" height="105" rx="14" fill="#f8fafc" stroke="#dbe3ef"/><rect x="340" y="175" width="90" height="10" rx="5" fill="#0891b2" opacity=".85"/><text x="340" y="217" font-family="Arial" font-size="25" font-weight="700" fill="#172033">Test runs</text><text x="340" y="245" font-family="Arial" font-size="18" fill="#65738a">1,248</text><rect x="570" y="155" width="230" height="105" rx="14" fill="#f8fafc" stroke="#dbe3ef"/><rect x="590" y="175" width="90" height="10" rx="5" fill="#0891b2" opacity=".85"/><text x="590" y="217" font-family="Arial" font-size="25" font-weight="700" fill="#172033">Coverage</text><text x="590" y="245" font-family="Arial" font-size="18" fill="#65738a">87%</text><rect x="820" y="155" width="310" height="105" rx="14" fill="#f8fafc" stroke="#dbe3ef"/><rect x="840" y="175" width="90" height="10" rx="5" fill="#0891b2" opacity=".85"/><text x="840" y="217" font-family="Arial" font-size="25" font-weight="700" fill="#172033">Defects</text><text x="840" y="245" font-family="Arial" font-size="18" fill="#65738a">12 open</text><rect x="70" y="290" width="1060" height="330" rx="16" fill="#ffffff" stroke="#dbe3ef"/><text x="95" y="330" font-family="Arial" font-size="23" font-weight="700" fill="#172033">API test run summary</text><rect x="95" y="365" width="440" height="215" rx="12" fill="#f8fafc"/><polyline points="120,525 175,480 230,495 285,430 340,450 395,400 450,420 510,370" fill="none" stroke="#0891b2" stroke-width="5"/><text x="570" y="395" font-family="Arial" font-size="18" fill="#65738a">Requests</text><text x="570" y="430" font-family="Arial" font-size="34" font-weight="700" fill="#172033">428</text><text x="570" y="480" font-family="Arial" font-size="18" fill="#65738a">Assertions passed</text><text x="570" y="515" font-family="Arial" font-size="34" font-weight="700" fill="#172033">99.1%</text></svg>