<svg xmlns="http://www.w3.org/2000/svg" viewBox="0 0 900 520">
<defs>
 <linearGradient id="bg" x1="0" y1="0" x2="1" y2="1"><stop offset="0" stop-color="#0e1728"/><stop offset="1" stop-color="#050a14"/></linearGradient>
 <linearGradient id="accent" x1="0" y1="0" x2="1" y2="0"><stop offset="0" stop-color="#ffb14e"/><stop offset="1" stop-color="#c2410c"/></linearGradient>
 <radialGradient id="glow"><stop offset="0" stop-color="#ffb14e" stop-opacity=".30"/><stop offset="1" stop-color="#ffb14e" stop-opacity="0"/></radialGradient>
 <filter id="shadow"><feDropShadow dx="0" dy="18" stdDeviation="20" flood-color="#000" flood-opacity=".45"/></filter>
</defs>
<rect width="900" height="520" rx="28" fill="url(#bg)"/>
<circle cx="720" cy="70" r="220" fill="url(#glow)"/>
<rect x="42" y="40" width="816" height="440" rx="22" fill="#0a1120" stroke="#ffffff" stroke-opacity=".10"/>
<rect x="42" y="40" width="816" height="52" rx="22" fill="#121d30"/>
<circle cx="70" cy="66" r="7" fill="#ff5b74"/><circle cx="94" cy="66" r="7" fill="#ffb84d"/><circle cx="118" cy="66" r="7" fill="#43d78a"/>
<rect x="155" y="57" width="250" height="18" rx="9" fill="#ffffff" fill-opacity=".07"/>
<rect x="70" y="120" width="150" height="318" rx="14" fill="#0f1a2c"/>
<rect x="88" y="146" width="95" height="9" rx="4" fill="#ffb14e" fill-opacity=".75"/>
<rect x="88" y="175" width="105" height="7" rx="3" fill="#ffffff" fill-opacity=".14"/>
<rect x="88" y="198" width="82" height="7" rx="3" fill="#ffffff" fill-opacity=".10"/>
<rect x="88" y="221" width="100" height="7" rx="3" fill="#ffffff" fill-opacity=".10"/>
<rect x="88" y="244" width="74" height="7" rx="3" fill="#ffffff" fill-opacity=".10"/>
<rect x="88" y="294" width="112" height="94" rx="12" fill="#111f34" stroke="#ffffff" stroke-opacity=".06"/>
<rect x="247" y="120" width="574" height="142" rx="16" fill="#0e182a" stroke="#ffffff" stroke-opacity=".06"/>
<rect x="272" y="145" width="150" height="12" rx="6" fill="#ffffff" fill-opacity=".12"/>
<rect x="272" y="175" width="110" height="48" rx="9" fill="url(#accent)" fill-opacity=".20" stroke="#ffb14e" stroke-opacity=".25"/>
<rect x="397" y="175" width="110" height="48" rx="9" fill="#111f34"/>
<rect x="522" y="175" width="110" height="48" rx="9" fill="#111f34"/>
<rect x="647" y="175" width="140" height="48" rx="9" fill="#111f34"/>
<rect x="247" y="285" width="270" height="153" rx="16" fill="#0e182a" stroke="#ffffff" stroke-opacity=".06"/>
<path d="M275 400 C315 365 338 390 370 340 S425 365 470 315" fill="none" stroke="#ffb14e" stroke-width="6" stroke-linecap="round"/>
<path d="M275 414 C325 400 355 410 392 380 S448 395 490 365" fill="none" stroke="#c2410c" stroke-opacity=".7" stroke-width="4" stroke-linecap="round"/>
<rect x="545" y="285" width="276" height="153" rx="16" fill="#0e182a" stroke="#ffffff" stroke-opacity=".06"/>
<rect x="570" y="314" width="70" height="94" rx="8" fill="#ffb14e" fill-opacity=".20"/>
<rect x="655" y="350" width="70" height="58" rx="8" fill="#c2410c" fill-opacity=".30"/>
<rect x="740" y="330" width="55" height="78" rx="8" fill="#ffffff" fill-opacity=".08"/>
<circle cx="786" cy="125" r="38" fill="url(#accent)" fill-opacity=".18" stroke="#ffb14e" stroke-opacity=".45"/>
<text x="786" y="133" text-anchor="middle" font-family="Inter,Arial,sans-serif" font-size="19" font-weight="800" fill="#fff">APP</text>
<text x="70" y="462" font-family="Inter,Arial,sans-serif" font-size="16" fill="#9aa8bd">PROJECT PREVIEW · 16</text>
</svg>