<svg xmlns="http://www.w3.org/2000/svg" viewBox="0 0 900 520"><defs><linearGradient id="bg" x1="0" y1="0" x2="1" y2="1"><stop offset="0" stop-color="#0d1729"/><stop offset="1" stop-color="#050a14"/></linearGradient><radialGradient id="g"><stop offset="0" stop-color="#2dd4bf" stop-opacity=".28"/><stop offset="1" stop-color="#2dd4bf" stop-opacity="0"/></radialGradient></defs><rect width="900" height="520" rx="18" fill="url(#bg)"/><circle cx="650" cy="110" r="230" fill="url(#g)"/><rect x="34" y="32" width="832" height="456" rx="18" fill="#09111f" stroke="#ffffff18"/><rect x="34" y="32" width="832" height="58" rx="18" fill="#111d32"/><circle cx="65" cy="61" r="7" fill="#ff6b7a"/><circle cx="88" cy="61" r="7" fill="#ffbf55"/><circle cx="111" cy="61" r="7" fill="#42d98b"/><rect x="145" y="51" width="250" height="20" rx="10" fill="#1c2a42"/><text x="55" y="125" fill="#2dd4bf" font-size="15" font-weight="800" letter-spacing="2">EVISION IT</text><text x="55" y="165" fill="#f4f6fb" font-size="27" font-weight="800">Whois</text><text x="55" y="195" fill="#8e9ab0" font-size="13">QA DELIVERY • AUTOMATION • VALIDATION</text><rect x="55" y="225" width="300" height="205" rx="14" fill="#0d1728" stroke="#ffffff10"/><rect x="75" y="245" width="115" height="18" rx="9" fill="#2dd4bf" opacity=".85"/><rect x="75" y="280" width="245" height="9" rx="5" fill="#25334a"/><rect x="75" y="305" width="205" height="9" rx="5" fill="#25334a"/><rect x="75" y="330" width="225" height="9" rx="5" fill="#25334a"/><rect x="395" y="280" width="330" height="150" rx="14" fill="#0d1729" stroke="#ffffff10"/><path d="M420 400V320M420 400H700" stroke="#71809a" opacity=".5"/><polyline points="435,375 480,350 525,365 570,325 615,345 675,300" fill="none" stroke="#2dd4bf" stroke-width="7" stroke-linecap="round"/><circle cx="615" cy="345" r="7" fill="#60a5fa"/><text x="55" y="466" fill="#748198" font-size="12">Project preview 14 • Quality engineering evidence</text></svg>