<svg xmlns="http://www.w3.org/2000/svg" viewBox="0 0 1200 620">
<defs>
 <linearGradient id="bg" x1="0" y1="0" x2="1" y2="1"><stop stop-color="#0a1020"/><stop offset="1" stop-color="#11172a"/></linearGradient>
 <linearGradient id="a" x1="0" y1="0" x2="1" y2="0"><stop stop-color="#b86cff"/><stop offset="1" stop-color="#6ea8ff"/></linearGradient>
 <filter id="glow"><feGaussianBlur stdDeviation="14" result="b"/><feMerge><feMergeNode in="b"/><feMergeNode in="SourceGraphic"/></feMerge></filter>
</defs>
<rect width="1200" height="620" rx="28" fill="url(#bg)"/>
<rect x="28" y="28" width="1144" height="564" rx="22" fill="#080d18" stroke="#26334a"/>
<rect x="28" y="28" width="1144" height="58" rx="22" fill="#0e1625"/>
<circle cx="60" cy="57" r="8" fill="#ff6b7a"/><circle cx="84" cy="57" r="8" fill="#ffc857"/><circle cx="108" cy="57" r="8" fill="#42d392"/>
<rect x="145" y="46" width="250" height="22" rx="11" fill="#1a2639"/>
<rect x="62" y="116" width="250" height="430" rx="18" fill="#0d1524" stroke="#1c2a40"/>
<rect x="92" y="150" width="135" height="18" rx="9" fill="url(#a)" opacity=".9"/>
<rect x="92" y="188" width="170" height="12" rx="6" fill="#334158"/><rect x="92" y="216" width="145" height="12" rx="6" fill="#26344a"/><rect x="92" y="244" width="160" height="12" rx="6" fill="#26344a"/>
<rect x="92" y="292" width="165" height="66" rx="14" fill="#111e33" stroke="#23344e"/><circle cx="120" cy="325" r="13" fill="#b86cff"/><rect x="145" y="315" width="80" height="10" rx="5" fill="#e6eaf2"/><rect x="145" y="333" width="55" height="8" rx="4" fill="#63708a"/>
<rect x="342" y="116" width="798" height="118" rx="18" fill="#0e1728" stroke="#1c2a40"/>
<text x="374" y="157" fill="#f7f8fc" font-family="Arial, sans-serif" font-size="25" font-weight="700">KuttingChaiOnline</text>
<text x="374" y="190" fill="#8f9bb0" font-family="Arial, sans-serif" font-size="15">QA workspace · automation · validation · release confidence</text>
<rect x="930" y="145" width="160" height="42" rx="21" fill="#151f34" stroke="#b86cff"/><text x="1010" y="172" text-anchor="middle" fill="#fff" font-family="Arial, sans-serif" font-size="15" font-weight="700">ELEGANT</text>
<rect x="342" y="258" width="380" height="245" rx="18" fill="#0d1627" stroke="#1c2a40"/>
<text x="372" y="294" fill="#cfd6e4" font-family="Arial, sans-serif" font-size="16" font-weight="700">Execution trend</text>
<path d="M374 450 C430 400,470 425,515 360 S600 390,670 315" fill="none" stroke="url(#a)" stroke-width="8" stroke-linecap="round" filter="url(#glow)"/>
<path d="M374 470 C440 450,475 455,520 415 S600 445,670 385" fill="none" stroke="#52627c" stroke-width="3"/>
<line x1="374" y1="470" x2="690" y2="470" stroke="#26344b"/><line x1="374" y1="330" x2="374" y2="470" stroke="#26344b"/>
<rect x="746" y="258" width="394" height="245" rx="18" fill="#0d1627" stroke="#1c2a40"/>
<text x="776" y="294" fill="#cfd6e4" font-family="Arial, sans-serif" font-size="16" font-weight="700">Coverage snapshot</text>
<circle cx="875" cy="390" r="72" fill="none" stroke="#243149" stroke-width="18"/><circle cx="875" cy="390" r="72" fill="none" stroke="url(#a)" stroke-width="18" stroke-dasharray="350 452" transform="rotate(-90 875 390)"/>
<text x="875" y="402" text-anchor="middle" fill="#fff" font-family="Arial, sans-serif" font-size="32" font-weight="800">95%</text>
<rect x="976" y="346" width="120" height="34" rx="17" fill="#111e33"/><text x="1036" y="368" text-anchor="middle" fill="#aab6c9" font-family="Arial, sans-serif" font-size="13">Web QA</text>
<rect x="976" y="390" width="120" height="34" rx="17" fill="#111e33"/><text x="1036" y="412" text-anchor="middle" fill="#aab6c9" font-family="Arial, sans-serif" font-size="13">Automation</text>
<rect x="976" y="434" width="120" height="34" rx="17" fill="#111e33"/><text x="1036" y="456" text-anchor="middle" fill="#aab6c9" font-family="Arial, sans-serif" font-size="13">Regression</text>
<text x="62" y="570" fill="#6f7e96" font-family="Arial, sans-serif" font-size="13">PROJECT PREVIEW · 04</text>
</svg>